# xmcd
#
# Track frame offsets: 
#        150
#        17100
#        45373
#        65293
#
# Disc length: 1147 seconds
#
# Revision: 0
# Processed by: cddbd v1.5.2PL0 Copyright (c) Steve Scherf et al.
# Submitted via: ExactAudioCopyFreeDBPlugin 1.0
#
DISCID=27047904
DTITLE=Bushman - No 1 Else
DYEAR=1995
DGENRE=Eurodance*
TTITLE0=No 1 Else (Radio Mix)
TTITLE1=No 1 Else (X 10 DED Mix)
TTITLE2=No 1 Else (Mangroove RMX)
TTITLE3=No 1 Else (Urban Jungle RMX)
EXTD=
EXTT0=
EXTT1=
EXTT2=
EXTT3=
PLAYORDER=
